<svg width="32" height="32" viewBox="0 0 32 32" fill="none" xmlns="http://www.w3.org/2000/svg">
<ellipse cx="16" cy="15.5152" rx="16" ry="15.5152" fill="#1B78FF"/>
<path d="M4.8685 15.736C4.8685 13.5173 5.3485 11.544 6.3085 9.816C7.2685 8.06667 8.60183 6.712 10.3085 5.752C12.0365 4.77067 13.9885 4.28 16.1645 4.28C18.8312 4.28 21.1138 4.984 23.0125 6.392C24.9112 7.8 26.1805 9.72 26.8205 12.152H20.8045C20.3565 11.2133 19.7165 10.4987 18.8845 10.008C18.0738 9.51733 17.1458 9.272 16.1005 9.272C14.4152 9.272 13.0498 9.85867 12.0045 11.032C10.9592 12.2053 10.4365 13.7733 10.4365 15.736C10.4365 17.6987 10.9592 19.2667 12.0045 20.44C13.0498 21.6133 14.4152 22.2 16.1005 22.2C17.1458 22.2 18.0738 21.9547 18.8845 21.464C19.7165 20.9733 20.3565 20.2587 20.8045 19.32H26.8205C26.1805 21.752 24.9112 23.672 23.0125 25.08C21.1138 26.4667 18.8312 27.16 16.1645 27.16C13.9885 27.16 12.0365 26.68 10.3085 25.72C8.60183 24.7387 7.2685 23.384 6.3085 21.656C5.3485 19.928 4.8685 17.9547 4.8685 15.736Z" fill="white"/>
</svg>
